# xmcd CD database file
#
# Track frame offsets:
#	150
#	14837
#	31612
#	54875
#	71600
#	85775
#	105487
#	123387
#	136075
#	148025
#	167450
#	181975
#	196175
#	226425
#	242550
#	261137
#	276062
#	290037
#
# Disc length: 4057 seconds
#
# Revision: 3
# Processed by: cddbd v1.5.1PL0 Copyright (c) Steve Scherf et al.
# Submitted via: CDex 1.51
#
DISCID=f40fd712
DTITLE=AL GREEN - THE BEST
DYEAR=1900
DGENRE=Blues
TTITLE0=I'm Still In Love With You
TTITLE1=What A Wonderful Thing Love Is
TTITLE2=Love And Happiness
TTITLE3=I've Never Found A Girl(Who Loves Me Like You Do)
TTITLE4=L-O-V-E(Love)
TTITLE5=Love Ritual
TTITLE6=God Blessed Our Love
TTITLE7=True Love
TTITLE8=Nothing Impossible With Love
TTITLE9=Strongn As Death (Sweet As Love)
TTITLE10=Your Love Is Like The Morning Sun
TTITLE11=There Is Love
TTITLE12=The Love Sermon
TTITLE13=Loving You
TTITLE14=To Sir With Love
TTITLE15=Let's Stay Together
TTITLE16=Call Me (Come Back Home)
TTITLE17=Livin' For You
EXTD=
EXTT0=
EXTT1=
EXTT2=
EXTT3=
EXTT4=
EXTT5=
EXTT6=
EXTT7=
EXTT8=
EXTT9=
EXTT10=
EXTT11=
EXTT12=
EXTT13=
EXTT14=
EXTT15=
EXTT16=
EXTT17=
PLAYORDER=
